<mxfile host="65bd71144e">
    <diagram id="uQMOBZMhVrbhEzuN0T4F" name="第 1 页">
        <mxGraphModel dx="641" dy="989" grid="0" gridSize="1" guides="1" tooltips="1" connect="1" arrows="1" fold="1" page="0" pageScale="1" pageWidth="1600" pageHeight="900" background="none" math="0" shadow="1">
            <root>
                <mxCell id="0"/>
                <mxCell id="1" parent="0"/>
                <mxCell id="2" value="likan" style="shape=umlActor;verticalLabelPosition=bottom;verticalAlign=top;html=1;outlineConnect=0;strokeWidth=10;rounded=0;sketch=1;fillColor=#fff2cc;strokeColor=#d6b656;perimeterSpacing=10;shadow=1;gradientColor=#ffffff;flipV=0;flipH=0;align=center;horizontal=1;fontColor=#e3e3e3;whiteSpace=wrap;fontStyle=1;labelBackgroundColor=none;labelBorderColor=none;fontSize=16;" parent="1" vertex="1">
                    <mxGeometry x="15" width="47" height="23" as="geometry"/>
                </mxCell>
            </root>
        </mxGraphModel>
    </diagram>
</mxfile>